# AST/ASF file generated using VICON BodyLanguage
# -----------------------------------------------
:version 1.10
:name VICON
:units
  mass 1.0
  length 0.45
  angle deg
:documentation
   .ast/.asf automatically generated from VICON data using
   VICON BodyBuilder and BodyLanguage model FoxedUp or BRILLIANT.MOD
:root
   order TX TY TZ RX RY RZ
   axis XYZ
   position 0 0 0  
   orientation 0 0 0 
:bonedata
  begin
     id 1 
     name lhipjoint
     direction 0.671379 -0.66392 0.329334 
     length 2.38647 
     axis 0 0 0  XYZ
  end
  begin
     id 2 
     name lfemur
     direction 0.34202 -0.939693 0  
     length 6.48179  
     axis 0 0 20  XYZ
    dof rx ry rz
    limits (-160.0 20.0)
           (-70.0 70.0)
           (-60.0 70.0)
  end
  begin
     id 3 
     name ltibia
     direction 0.34202 -0.939693 0   
     length 6.86524   
     axis 0 0 20   XYZ
    dof rx
    limits (-10.0 170.0)
  end
  begin
     id 4 
     name lfoot
     direction 0.204886 -0.562919 0.800715   
     length 1.73031   
     axis -90 7.62852e-016 20   XYZ
    dof rx rz
    limits (-45.0 90.0)
           (-70.0 20.0)
  end
  begin
     id 5 
     name ltoes
     direction 1.53548e-011 -4.21841e-011 1   
     length 0.828161   
     axis -90 7.62852e-016 20   XYZ
    dof rx
    limits (-90.0 20.0)
  end
  begin
     id 6 
     name rhipjoint
     direction -0.662732 -0.670855 0.332775   
     length 2.3618  
     axis 0 0 0  XYZ 
  end
  begin
     id 7 
     name rfemur
     direction -0.34202 -0.939693 0   
     length 6.3025   
     axis 0 0 -20   XYZ
    dof rx ry rz
    limits (-160.0 20.0)
           (-70.0 70.0)
           (-70.0 60.0)
  end
  begin
     id 8 
     name rtibia
     direction -0.34202 -0.939693 0   
     length 6.8732   
     axis 0 0 -20   XYZ
    dof rx
    limits (-10.0 170.0)
 end
 begin
     id 9 
     name rfoot
     direction -0.173856 -0.477665 0.861168   
     length 1.54784  
     axis -90 -7.62852e-016 -20   XYZ
    dof rx rz
    limits (-45.0 90.0)
           (-20.0 70.0)
  end
  begin
     id 10 
     name rtoes
     direction -1.53562e-011 -4.21802e-011 1   
     length 0.759618   
     axis -90 -7.62852e-016 -20   XYZ
    dof rx
    limits (-90.0 20.0)
  end
  begin
     id 11 
     name lowerback
     direction -0.0278357 0.999497 -0.0151789   
     length 1.97203   
     axis 0 0 0   XYZ
    dof rx ry rz
    limits (-20.0 45.0)
           (-30.0 30.0)
           (-30.0 30.0)
  end
  begin
     id 12 
     name upperback
     direction -0.00360622 0.997542 0.0699804   
     length 1.94709   
     axis 0 0 0   XYZ
    dof rx ry rz
    limits (-20.0 45.0)
           (-30.0 30.0)
           (-30.0 30.0)
  end
  begin
     id 13 
     name thorax
     direction 0.00907706 0.997048 0.0762461   
     length 1.95722   
     axis 0 0 0   XYZ
    dof rx ry rz
    limits (-20.0 45.0)
           (-30.0 30.0)
           (-30.0 30.0)
  end
  begin
     id 14 
     name lowerneck
     direction -0.0481835 0.99872 -0.0153927   
     length 1.63078   
     axis 0 0 0   XYZ
    dof rx ry rz
    limits (-20.0 45.0)
           (-30.0 30.0)
           (-30.0 30.0)
  end
  begin
     id 15 
     name upperneck
     direction 0.0859716 0.979226 -0.183644   
     length 1.62591   
     axis 0 0 0   XYZ
    dof rx ry rz
    limits (-20.0 45.0)
           (-30.0 30.0)
           (-30.0 30.0)
  end
  begin
     id 16
     name head
     direction 0.0324821 0.997629 -0.0606773  
     length 1.64811  
     axis 0 0 0   XYZ
    dof rx ry rz
    limits (-20.0 45.0)
           (-30.0 30.0)
           (-30.0 30.0)
  end
  begin
     id 17 
     name lclavicle
     direction 0.939609 0.311019 0.142835  
     length 3.70647  
     axis 0 0 0   XYZ
    dof ry rz
    limits (-20.0 10.0)
           (0.0 20.0)
  end
  begin
     id 18 
     name lhumerus
     direction 1 -4.48963e-011 -1.59838e-027   
     length 4.59207   
     axis 180 -30 -90   XYZ
    dof rx ry rz
    limits (-60.0 90.0)
           (-90.0 90.0)
           (-90.0 90.0)
  end
  begin
     id 19
     name lradius
     direction 1 -4.48957e-011 -1.3483e-026   
     length 2.98109   
     axis 180 -30 -90   XYZ
    dof rx
    limits (-10.0 170.0)
  end
  begin
     id 20
     name lwrist
     direction 1 -4.48954e-011 -3.11579e-026   
     length 1.49055   
     axis 2.00652e-014 90 90   XYZ
    dof ry
    limits (-180.0 0.0)
 end
  begin
     id 21 
     name lhand
     direction 1 -4.4911e-011 -6.23158e-026   
     length 0.480203   
     axis 3.97628e-014 90 90   XYZ
    dof rx rz
    limits (-90.0 90.0)
           (-45.0 45.0)
  end
  begin
     id 22 
     name lfingers
     direction 1 -4.48893e-011 -1.24632e-025   
     length 0.387152   
     axis 7.95256e-014 90 90   XYZ
    dof rx
    limits (0.0 90.0)
  end
  begin
     id 23
     name lthumb
     direction 0.707107 -6.35013e-011 0.707107   
     length 0.555875   
     axis -90 45 2.85299e-015   XYZ
    dof rx rz
    limits (-45.0 45.0)
           (-45.0 45.0)
  end
  begin
     id 24 
     name rclavicle
     direction -0.950396 0.30392 0.0661859   
     length 3.70894  
     axis 0 0 0   XYZ 
    dof ry rz
    limits (-10.0 20.0)
           (-20.0 0.0)
  end
  begin
     id 25 
     name rhumerus
     direction -1 -4.48957e-011 -2.96677e-027  
     length 4.76508   
     axis 180 30 90   XYZ
    dof rx ry rz
    limits (-90.0 60.0)
           (-90.0 90.0)
           (-90.0 90.0)
  end
  begin
     id 26 
     name rradius
     direction -1 -4.48974e-011 -1.44501e-026   
     length 2.78902   
     axis 180 30 90   XYZ
    dof rx
    limits (-10.0 170.0)
  end
  begin
     id 27 
     name rwrist
     direction -1 -4.48978e-011 -3.11579e-026   
     length 1.39451   
     axis 2.00652e-014 -90 -90   XYZ
    dof ry
    limits (-180.0 0.0)
  end
  begin
     id 28
     name rhand
     direction -1 -4.48956e-011 -6.23158e-026   
     length 0.721303   
     axis 3.97628e-014 -90 -90   XYZ
    dof rx rz
    limits (-90.0 90.0)
           (-45.0 45.0)
  end
  begin
     id 29
     name rfingers
     direction -1 -4.4899e-011 -1.24632e-025   
     length 0.581533   
     axis 7.95256e-014 -90 -90   XYZ
    dof rx
    limits (0.0 90.0)
  end
  begin
     id 30
     name rthumb
     direction -0.707107 -6.34911e-011 0.707107   
     length 0.834968   
     axis -90 -45 -2.85299e-015   XYZ
    dof rx rz
    limits (-45.0 45.0)
           (-45.0 45.0)
  end
:hierarchy
  begin
    root lhipjoint rhipjoint lowerback
    lhipjoint lfemur
    lfemur ltibia
    ltibia lfoot
    lfoot ltoes
    rhipjoint rfemur
    rfemur rtibia
    rtibia rfoot
    rfoot rtoes
    lowerback upperback
    upperback thorax
    thorax lowerneck lclavicle rclavicle
    lowerneck upperneck
    upperneck head
    lclavicle lhumerus
    lhumerus lradius
    lradius lwrist
    lwrist lhand lthumb
    lhand lfingers
    rclavicle rhumerus
    rhumerus rradius
    rradius rwrist
    rwrist rhand rthumb
    rhand rfingers
  end

#!OML:ASF I:\salsa\salsa 7_09\Patient 1\Session 1\dancerfemale.ASF
:FULLY-SPECIFIED
:DEGREES
916
root 8.66648 16.7065 5.80572 7.16137 -59.5685 358.96
lowerback 5.30857 -3.53911 -1.52829
upperback -7.91383 -5.26525 -1.63986
thorax -11.4986 -2.55302 -0.106481
lowerneck 6.74411 -12.0663 -13.1869
upperneck 6.28746 -18.6396 18.8971
head 3.78801 -9.58137 7.27835
rclavicle 2.89232e-014 -7.95139e-015
rhumerus 60.7007 -31.1355 -55.9497
rradius 70.993
rwrist -0.0247915
rhand -17.9432 395.343
rfingers 7.12502
rthumb 8.32519 5.5274
lclavicle 2.89232e-014 -7.95139e-015
lhumerus -71.846 -31.8909 131.753
lradius 111.794
lwrist 4.56394
lhand -20.1928 2.94985
lfingers 7.12502
lthumb 6.15371 32.8405
rfemur -24.9748 -9.28008 26.1911
rtibia 34.7939
rfoot -1.43924 19.5637
rtoes -5.34941
lfemur -26.5305 -17.7086 -14.5714
ltibia 46.7469
lfoot 2.19884 -10.6999
ltoes -31.9501
917
root 8.90917 16.6408 5.97905 6.94376 -72.0282 359.194
lowerback 5.29815 -3.15841 -1.41064
upperback -7.69524 -4.80446 -2.13874
thorax -11.3016 -2.38109 -0.780454
lowerneck 5.3364 -10.5498 -13.1346
upperneck 7.02777 -16.6104 19.3169
head 3.92403 -8.51022 7.49272
rclavicle 5.71506e-014 2.62396e-014
rhumerus 60.104 -26.7904 -52.1993
rradius 71.2404
rwrist 3.25696
rhand -18.4757 393.455
rfingers 7.12502
rthumb 7.81122 3.61882
lclavicle 5.71506e-014 2.62396e-014
lhumerus -72.0741 -33.0257 132.554
lradius 112.167
lwrist 6.18729
lhand -22.4193 4.5236
lfingers 7.12502
lthumb 4.0039 34.4657
rfemur -25.2353 -10.1593 26.3345
rtibia 35.2309
rfoot -4.63021 17.8996
rtoes -9.83262
lfemur -24.6141 -15.004 -16.3615
ltibia 47.0836
lfoot 0.994964 -5.8434
ltoes -32.1826
918
root 9.12002 16.567 6.12058 5.80684 -84.9225 360.139
lowerback 5.85088 -2.65115 -1.91384
upperback -7.74382 -4.27695 -2.5586
thorax -11.6894 -2.11566 -0.99979
lowerneck 4.04665 -9.29037 -12.5369
upperneck 7.86867 -14.9081 19.2486
head 4.04172 -7.5976 7.44612
rclavicle 1.0138e-014 1.90833e-014
rhumerus 59.6154 -23.6496 -48.623
rradius 72.8265
rwrist 5.6589
rhand -15.5657 396.061
rfingers 7.12502
rthumb 10.6191 6.34958
lclavicle 1.0138e-014 1.90833e-014
lhumerus -71.5822 -33.5823 132.126
lradius 111.887
lwrist 4.91076
lhand -18.691 3.38287
lfingers 7.12502
lthumb 7.60345 33.2262
rfemur -25.0675 -10.4142 26.6035
rtibia 36.3783
rfoot -10.917 14.3565
rtoes -27.0439
lfemur -22.302 -8.42879 -18.6145
ltibia 46.8615
lfoot -0.917383 -0.984161
ltoes -33.0923
919
root 9.33926 16.5312 6.24866 16.7225 -98.1879 349.464
lowerback 6.19101 -2.08954 -3.89711
upperback -8.13083 -3.96449 -3.34578
thorax -12.2888 -1.86179 -0.774498
lowerneck 2.83943 -8.04743 -12.1843
upperneck 8.79992 -13.3902 19.8296
head 4.27562 -6.7854 7.64406
rclavicle -4.92986e-014 -9.54166e-015
rhumerus 61.0631 -21.3913 -47.1724
rradius 73.071
rwrist 5.73984
rhand -9.8674 400.498
rfingers 7.12502
rthumb 16.1113 11.1473
lclavicle -4.92986e-014 -9.54166e-015
lhumerus -71.6129 -34.0333 132.162
lradius 111.672
lwrist 5.66648
lhand -21.4537 2.16109
lfingers 7.12502
lthumb 4.93631 32.0836
rfemur -25.4312 -9.52286 25.1649
rtibia 37.838
rfoot -10.7874 14.1544
rtoes -15.0704
lfemur -21.0927 -0.739318 -21.9039
ltibia 46.0201
lfoot -1.97584 3.0243
ltoes -34.509
920
root 9.53392 16.5783 6.39997 14.5234 -111.055 351.996
lowerback 5.53881 -1.69692 -5.2674
upperback -8.47718 -3.82724 -4.37994
thorax -12.3142 -1.79364 -1.1758
lowerneck 2.01885 -6.90791 -11.8021
upperneck 9.51901 -12.1626 20.9747
head 4.45915 -6.14709 8.03218
rclavicle -5.1684e-015 -7.95139e-015
rhumerus 61.0287 -18.8116 -42.3217
rradius 76.4602
rwrist -8.24264
rhand -7.53623 398.138
rfingers 7.12502
rthumb 18.355 8.98388
lclavicle -5.1684e-015 -7.95139e-015
lhumerus -71.3781 -34.7979 131.971
lradius 111.207
lwrist 5.79822
lhand -17.9393 2.87232
lfingers 7.12502
lthumb 8.32889 32.6881
rfemur -25.3045 -8.17702 23.4366
rtibia 39.0785
rfoot -12.2128 12.5089
rtoes -18.9582
lfemur -20.5404 5.95163 -25.0561
ltibia 44.905
lfoot -2.45395 7.04462
ltoes -36.5665
